Coordinates
version=1
nRows=7
nColumns=46
inDegrees=yes

Units are S.I. units (second, meters, Newtons, ...)
Angles are in degrees.

endheader
time	pelvis_tilt	pelvis_list	pelvis_rotation	pelvis_tx	pelvis_ty	pelvis_tz	bb_angle	bb_tx	bb_ty	bb_tz	hip_flexion_r	hip_adduction_r	hip_rotation_r	knee_angle_r	knee_angle_r_beta	ankle_angle_r	subtalar_angle_r	mtp_angle_r	crank_angle_r	hip_flexion_l	hip_adduction_l	hip_rotation_l	knee_angle_l	knee_angle_l_beta	ankle_angle_l	subtalar_angle_l	mtp_angle_l	crank_angle_l	lumbar_extension	lumbar_bending	lumbar_rotation	arm_flex_r	arm_add_r	arm_rot_r	elbow_flex_r	pro_sup_r	wrist_flex_r	wrist_dev_r	arm_flex_l	arm_add_l	arm_rot_l	elbow_flex_l	pro_sup_l	wrist_flex_l	wrist_dev_l
      5.00500000	    -12.37276010	      4.87980387	      0.99499263	      0.17077312	      1.14367899	     -0.20024371	      0.00000000	      0.50000000	      0.00000000	      0.25000000	     44.70493325	     -5.83471586	      6.27067855	     33.06234797	      0.57704683	     -6.09160639	     -8.44314040	      0.00000000	      0.00000000	     66.11157528	      4.11891833	      7.89801418	     98.96696162	      1.72729933	     -7.66069041	     -9.50688224	      0.00000000	      0.00000000	    -66.02657315	     -3.07652239	    -12.73590745	     89.19812867	     -4.53107692	     36.25470788	     46.64304835	     30.57067767	      0.00000000	      0.00000000	     88.96623957	    -21.71794049	     25.25249468	     55.39061418	     38.10372889	      0.00000000	      0.00000000
      5.01000000	    -12.53607848	      5.25310888	      1.81450818	      0.17163425	      1.14426535	     -0.19989674	      0.00000000	      0.50000000	      0.00000000	      0.25000000	     42.94875211	     -6.62526469	      6.00849533	     30.46642375	      0.53173941	     -8.11537245	     -9.01652947	      0.00000000	      0.00000000	     67.49436715	      4.95864628	      7.91401942	    100.25953764	      1.74985904	     -6.83223964	     -9.06957194	      0.00000000	      0.00000000	    -65.90003622	     -3.03348159	    -13.60491496	     89.22563581	     -4.30493914	     36.57796523	     45.60510928	     30.51619627	      0.00000000	      0.00000000	     88.98963701	    -21.46541444	     25.08622022	     55.50564613	     38.11176007	      0.00000000	      0.00000000
      5.01500000	    -13.02381618	      5.80086334	      2.61509414	      0.17223899	      1.14432385	     -0.19932858	      0.00000000	      0.50000000	      0.00000000	      0.25000000	     41.69208951	     -7.57991836	      5.67332902	     28.17947468	      0.49182461	     -9.58507163	     -8.78376012	      0.00000000	      0.00000000	     69.23380145	      5.81893170	      7.69053583	    101.42072465	      1.77012557	     -6.11626107	     -8.94026587	      0.00000000	      0.00000000	    -65.46571718	     -3.25361262	    -14.61612552	     89.15600753	     -4.31957776	     36.74510476	     45.00880961	     30.49890093	      0.00000000	      0.00000000	     89.04729254	    -21.12634634	     25.11526058	     55.67496529	     38.13746007	      0.00000000	      0.00000000
      5.02000000	    -13.40511259	      6.22001905	      3.18975472	      0.17317838	      1.14447428	     -0.19909324	      0.00000000	      0.50000000	      0.00000000	      0.25000000	     40.27527343	     -8.32161250	      5.33969213	     25.84052408	      0.45100223	    -11.01656791	     -8.55301454	      0.00000000	      0.00000000	     70.85778220	      6.35268696	      7.34884703	    102.55986425	      1.79000731	     -5.18112472	     -8.69381255	      0.00000000	      0.00000000	    -65.17188851	     -3.52942570	    -15.42420238	     89.12878881	     -4.31419638	     37.15178101	     44.03621500	     30.46360031	      0.00000000	      0.00000000	     89.05962086	    -20.83004600	     25.15730733	     55.83277855	     38.15529311	      0.00000000	      0.00000000
      5.02500000	    -13.93790885	      6.69487981	      3.97622791	      0.17345863	      1.14458270	     -0.19852842	      0.00000000	      0.50000000	      0.00000000	      0.25000000	     39.10054284	     -9.21986261	      4.75489067	     23.71125784	      0.41383952	    -12.33297917	     -7.98429101	      0.00000000	      0.00000000	     72.63990685	      7.03744064	      7.02823217	    103.48100915	      1.80608432	     -4.63390033	     -8.47604289	      0.00000000	      0.00000000	    -64.75739999	     -3.75247335	    -16.28269155	     89.05726807	     -4.46334273	     37.32930564	     43.48075622	     30.42349886	      0.00000000	      0.00000000	     89.11648874	    -20.45302523	     25.31332978	     56.00650012	     38.18187206	      0.00000000	      0.00000000
      5.03000000	    -14.23482596	      6.97296816	      4.74741318	      0.17420725	      1.14518458	     -0.19781252	      0.00000000	      0.50000000	      0.00000000	      0.25000000	     37.53514787	     -9.91639617	      3.79832106	     21.44183684	      0.37423065	    -13.82609334	     -7.69930979	      0.00000000	      0.00000000	     74.08774145	      7.51437235	      6.86871381	    104.28807348	      1.82017025	     -3.78463782	     -7.84879996	      0.00000000	      0.00000000	    -64.56110401	     -3.88017411	    -17.02083680	     89.06781738	     -4.50470692	     37.81680052	     42.37064484	     30.36875398	      0.00000000	      0.00000000	     89.16689310	    -20.12125134	     25.52949392	     56.12632303	     38.17504773	      0.00000000	      0.00000000
      5.03500000	    -14.73729225	      7.23413510	      5.38086837	      0.17470876	      1.14538437	     -0.19719312	      0.00000000	      0.50000000	      0.00000000	      0.25000000	     36.30558849	    -10.52046202	      3.03034806	     19.35106347	      0.33773977	    -15.09076673	     -7.00830080	      0.00000000	      0.00000000	     75.78520486	      7.82458093	      6.58953530	    105.00890277	      1.83275110	     -3.09215377	     -7.31420976	      0.00000000	      0.00000000	    -64.15368591	     -4.12258581	    -17.63877697	     89.04234494	     -4.59040517	     38.21829761	     41.45263561	     30.36080717	      0.00000000	      0.00000000	     89.19931126	    -19.78336086	     25.80916772	     56.21714508	     38.14987269	      0.00000000	      0.00000000
